inDegrees=no
num_controls=7
num_derivatives=13
num_iterations=177
num_multipliers=7
num_parameters=0
num_slacks=7
num_states=26
objective=5.974630
objective_accelerations=0.733655
objective_balance=0.137928
objective_effort=0.457750
objective_height=4.558732
objective_ligament=0.086564
solver_duration=2029.706655
status=Solve_Succeeded
success=true
DataType=double
version=3
OpenSimVersion=4.4-2022-07-23-0e9fedc
endheader
time	/jointset/ground_pelvis/pelvis_tilt/value	/jointset/ground_pelvis/pelvis_tx/value	/jointset/ground_pelvis/pelvis_ty/value	/jointset/hip_l/hip_flexion_l/value	/jointset/hip_l/hip_adduction_l/value	/jointset/hip_l/hip_rotation_l/value	/jointset/back/lumbar_extension/value	/jointset/patellofemoral_l/patellar_flexion_l/value	/jointset/knee_l/knee_flexion_l/value	/jointset/knee_l/knee_adduction_l/value	/jointset/knee_l/knee_rotation_l/value	/jointset/ankle_l/ankle_angle_l/value	/jointset/subtalar_l/subtalar_angle_l/value	/jointset/ground_pelvis/pelvis_tilt/speed	/jointset/ground_pelvis/pelvis_tx/speed	/jointset/ground_pelvis/pelvis_ty/speed	/jointset/hip_l/hip_flexion_l/speed	/jointset/hip_l/hip_adduction_l/speed	/jointset/hip_l/hip_rotation_l/speed	/jointset/back/lumbar_extension/speed	/jointset/patellofemoral_l/patellar_flexion_l/speed	/jointset/knee_l/knee_flexion_l/speed	/jointset/knee_l/knee_adduction_l/speed	/jointset/knee_l/knee_rotation_l/speed	/jointset/ankle_l/ankle_angle_l/speed	/jointset/subtalar_l/subtalar_angle_l/speed	/forceset/tau_hip_flexion_l	/forceset/tau_hip_adduction_l	/forceset/tau_hip_rotation_l	/forceset/tau_knee_flexion_l	/forceset/tau_ankle_angle_l	/forceset/tau_subtalar_angle_l	/forceset/tau_lumbar_extension	lambda_cid13_p0	lambda_cid13_p1	lambda_cid13_p2	lambda_cid13_p3	lambda_cid13_p4	lambda_cid13_p5	lambda_cid14_p0	/jointset/ground_pelvis/pelvis_tilt/accel	/jointset/ground_pelvis/pelvis_tx/accel	/jointset/ground_pelvis/pelvis_ty/accel	/jointset/hip_l/hip_flexion_l/accel	/jointset/hip_l/hip_adduction_l/accel	/jointset/hip_l/hip_rotation_l/accel	/jointset/back/lumbar_extension/accel	/jointset/patellofemoral_l/patellar_flexion_l/accel	/jointset/knee_l/knee_flexion_l/accel	/jointset/knee_l/knee_adduction_l/accel	/jointset/knee_l/knee_rotation_l/accel	/jointset/ankle_l/ankle_angle_l/accel	/jointset/subtalar_l/subtalar_angle_l/accel	gamma_cid13_p0	gamma_cid13_p1	gamma_cid13_p2	gamma_cid13_p3	gamma_cid13_p4	gamma_cid13_p5	gamma_cid14_p0
0.5	-0.4547143680140698	-0.05506989241699207	0.7543269517898818	1.298635086812105	-0.307682823744996	-0.0177460642795609	-0.3330098377940979	0.766948426280761	0.7669484262807362	-0.169951191875731	0.1745043948427553	0.09690941251314465	-0.03574132500205028	-0.7591845637611618	-0.2234020911530087	-0.5388395357724008	2.478371849145856	-0.007310488089466712	0.6982376552664011	-0.6220533887581363	1.982880759480972	1.982880759480959	-0.0124689972337844	-1.425446213947766e-05	0.378846064588912	0.04524157313834739	-0.2523820046670172	0.02440948806212032	-0.02077416265087489	-0.1976481768790952	0.09033347630994912	0.04516589722694254	0.2247482963916701	-9.022336247381855	-20.79778675775341	6.068166301306742	-1.903526732838041	-604.7470062680235	-56.6138153847503	-23.70120933553966	0.6612911493872439	0.6714171653763066	-0.37412405355017	-1.571607276878953	0.6898258096621911	-0.3535938788931325	1.844567783364582	-1.273893221214838	-1.273893221214824	-0.01229253757042256	-0.009964127249776137	-0.3463443449500722	0.6769256440001288	-3.812443906268852e-07	-9.907767460437694e-07	1.912495094514627e-06	1.272668600204143e-07	-4.555185251877381e-07	-1.160680248042279e-07	-4.010404579574328e-07
0.51	-0.4622715027558665	-0.05727008684053074	0.748921019369563	1.323335839541459	-0.3077230787751601	-0.01078132189797044	-0.3391382233901947	0.7867103513797299	0.7867103513796733	-0.170079670131692	0.1745043345950651	0.1006793540404835	-0.03525691445753735	-0.7521453743590421	-0.216619750955476	-0.542233716200673	2.461453175008396	-0.0007640155739832078	0.6946242075333412	-0.6035594484146456	1.9692350211775	1.969235021177494	-0.01321922839307259	6.091040128514281e-06	0.3750720675251406	0.05161644842138178	-0.2609057997834836	0.0249317331500971	-0.02077588635711156	-0.1990029696020398	0.08871950780548368	0.04543257153911749	0.2313088060600023	-9.806256754570477	-20.67284471438564	5.930024655015481	-1.689415474180653	-609.7300572345464	-56.13399367310728	-22.50323400519383	0.739741141108652	0.6842233382808588	-0.3051669633601331	-1.800878823294733	0.6333749211068315	-0.3785650421370749	1.861449466869162	-1.450222235821681	-1.450222235820721	-0.105360141803894	0.008220124749393659	-0.4034602700859282	0.6140879426579262	-3.524159419709133e-07	-9.006446298784978e-07	1.804251680344357e-06	1.179030476827167e-07	-4.143718866393687e-07	-6.326618034845736e-08	-3.76368680519957e-07
0.52	-0.4697553439425455	-0.0594019416838264	0.7434845247597826	1.347857629261211	-0.3076986056904456	-0.003855382958048695	-0.3450797411214517	0.8063277574754829	0.8063277574753952	-0.1702154450465849	0.1745045150495515	0.104409449020584	-0.03470949126575353	-0.7445258527375386	-0.2097341751044065	-0.5449519736647181	2.442579247226323	0.005635134886127084	0.6904769669352931	-0.584679815790034	1.953976958837695	1.953976958837695	-0.01392832902019933	3.388597376678027e-05	0.3708767551415597	0.05784410259252935	-0.2694295948999795	0.02545397823803475	-0.02077761006323261	-0.2003577623250072	0.0871055393010057	0.04569924585124752	0.2378693157283157	-10.59416408048494	-20.55064362552915	5.796249561464351	-1.490000386048858	-614.7967130623725	-55.73603617637549	-21.30311222885378	0.7773575932640386	0.6920642960836608	-0.2389394607047808	-1.962658005801985	0.6603613985875655	-0.4603524518907359	1.921706239588741	-1.59635802848153	-1.596358028481492	-0.004066431138126939	-0.008474240975719666	-0.4306074089119623	0.6474814216227596	-3.23486830486053e-07	-8.130291789303329e-07	1.692407356782851e-06	1.086000724193039e-07	-3.753263843337473e-07	-1.542744748462045e-08	-3.511576098082868e-07
0.53	-0.477160225798141	-0.06146450676832745	0.7380242352037749	1.372181254289315	-0.3076107529113518	0.003026436888857556	-0.3508306293153453	0.8257847907896579	0.8257847907896714	-0.1703577317055302	0.1745049491129786	0.1080956308337494	-0.03410038253797895	-0.7363601542847739	-0.2027690474408384	-0.5469903865480781	2.421834924463417	0.01190634313483272	0.685803532981752	-0.5654506981446508	1.937172456818173	1.937172456818173	-0.01452136288683861	5.570509463333194e-05	0.3662945401977586	0.06394757514772748	-0.2777565624144083	0.02576602335882715	-0.02075605409612215	-0.2018066150700175	0.08559299882994158	0.04579678260668248	0.2442205667547152	-11.35133986831384	-20.35817445188076	5.648766123840946	-1.259407502195105	-619.7973952266724	-55.24736450273377	-20.10266001317475	0.8496934789219887	0.7002268974091895	-0.1690305173782537	-2.176989699573092	0.6059897891542577	-0.483662697348392	1.930583253653917	-1.761015782502736	-1.761015782502863	-0.08584936463616526	0.007577910503408368	-0.4817915645224213	0.5872006221904938	-2.955168557635113e-07	-7.286449160585444e-07	1.581341633850871e-06	1.002036179332193e-07	-3.390779856428356e-07	2.733273372444825e-08	-3.261388102927384e-07
0.54	-0.4844807471676813	-0.06345712259700981	0.7325470138558881	1.39628810203218	-0.3074610901995414	0.009858957630166445	-0.3563878125874572	0.8450660751848782	0.8450660751849883	-0.1705057342031898	0.1745056149519813	0.1117340378919942	-0.03343115499470797	-0.7276537555264297	-0.1957443239406693	-0.5483383320405009	2.399223790178979	0.01799712142923288	0.6806171458177077	-0.5459388314336281	1.918827175046041	1.91882717504604	-0.01507149676185234	8.024109092172796e-05	0.3613218041576283	0.06986786569181225	-0.2860835299288563	0.02607806847959453	-0.02073449812901518	-0.2032554678150314	0.08408045835887099	0.04589431936208884	0.2505718177811012	-12.11395140207155	-20.16767324320053	5.504932700065424	-1.036320950115062	-624.899360499389	-54.8340366372186	-18.90413234700797	0.8854976543799289	0.7039834634038723	-0.1008459825173604	-2.336020310108449	0.6242754077264797	-0.5629430939913486	1.978256052716674	-1.904513979003595	-1.904513979003582	0.004513567186988509	-0.007930865891358919	-0.5087116281778459	0.610845019400089	-2.686080536290669e-07	-6.478355846755129e-07	1.471137341402622e-06	9.281012260502968e-08	-3.059242547809644e-07	6.447409182611376e-08	-3.013327363558778e-07
0.55	-0.4917116509030436	-0.06537926792908504	0.7270597674936812	1.420159829252759	-0.3072512996497533	0.01663703966154702	-0.3617485295329789	0.8641564308597561	0.8641564308597665	-0.1706586625473112	0.1745064801969885	0.1153209011272036	-0.03270350139769991	-0.7184434296300388	-0.1886812650010476	-0.54899393448828	2.374824374141949	0.0239262159680048	0.674917371831059	-0.5261724012356617	1.898998438087375	1.898998438087366	-0.01550695132381062	9.622407435940381e-05	0.3559918800570031	0.07562648002961128	-0.2941845505461645	0.02620715545441492	-0.02068670038974635	-0.2047568513299114	0.08265852851048845	0.04583258345367013	0.2566922069309758	-12.84512020301115	-19.91108610102855	5.3477988841892	-0.7924811483449317	-629.8775565309977	-54.33338245200385	-17.71000624909086	0.9513034216323941	0.7080064856367002	-0.03042405710906237	-2.536531740195648	0.571873357176555	-0.5860333920429666	1.98065996862835	-2.058824270199661	-2.058824270200946	-0.0665530496448075	0.00657366023381132	-0.5539769037735857	0.552844121852477	-2.439363802639803e-07	-5.659342567591997e-07	1.369866998858025e-06	8.836758930182163e-08	-2.762403448747163e-07	9.842792224927459e-08	-2.773803822874369e-07
0.5600000000000001	-0.4988479507065695	-0.06723067479648515	0.721569463770756	1.443778636415027	-0.3069832887785318	0.02335561618485227	-0.3669106174834629	0.8830411450218691	0.8830411450217784	-0.1708157410534052	0.1745075474277782	0.1188526963008533	-0.03191936676113731	-0.7087329691590945	-0.181596631005646	-0.5489498041840908	2.348639778517098	0.02964118571573674	0.6687160442027585	-0.5062130324260192	1.877698872492645	1.877698872492627	-0.01590152915606964	0.0001206382486953962	0.3503081918456299	0.0811640736027185	-0.302285571163482	0.02633624242923639	-0.020638902650529	-0.2062582348447832	0.08123659866210949	0.04577084754525342	0.2628125960808396	-13.58251485309809	-19.65583122345067	5.193645486743351	-0.5523144260339026	-634.9656882386492	-53.90084059871356	-16.52337241613165	0.9855245692906336	0.7082984745598261	0.03910056787630978	-2.693056227672813	0.5814504495184879	-0.663253822321718	2.016843775051915	-2.198679706216732	-2.198679706216692	0.01268891312684585	-0.006244627711714067	-0.5794644503274426	0.56664086646173	-2.219492614221231e-07	-4.827225330029485e-07	1.279317396197812e-06	8.746621042859134e-08	-2.50720220115216e-07	1.285567194582299e-07	-2.544524920610996e-07
0.5700000000000001	-0.5058847993752478	-0.069011202061199	0.7160830965174705	1.467126974045058	-0.3066590693116256	0.03000969674233609	-0.3718722205496815	0.9017056891521668	0.9017056891521475	-0.1709762374264054	0.1745087819714724	0.1223260034659655	-0.03108081872150445	-0.6985593196537897	-0.1745114376132012	-0.5482061927952969	2.320743600430514	0.03516352929572366	0.6620191013520822	-0.4860915351495478	1.854976356617961	1.854976356617969	-0.01618951142601482	0.0001299537453872328	0.3443008075157384	0.08650400228914359	-0.3101187688156419	0.02630338041838205	-0.02056219196215302	-0.2077800356409133	0.07986530453134399	0.04557343260571871	0.2686656020733269	-14.29722996151439	-19.34319953362386	5.027576619228233	-0.2822800659419	-639.8699455503731	-53.39513691347008	-15.34835941012004	1.044876922958731	0.7082548113790884	0.1095622191105604	-2.880551118794004	0.5316194714272434	-0.685270414167267	2.012209554205981	-2.344028773791257	-2.344028773787387	-0.04835106222405728	0.004810335313910561	-0.6192368088500371	0.5113641823743683	-1.990998124253371e-07	-4.048955450631795e-07	1.182350786782668e-06	8.441483282821117e-08	-2.246140869967061e-07	1.525048816526354e-07	-2.310128499021823e-07
0.58	-0.512817593192511	-0.07072095238403009	0.7106076795370184	1.490187819390291	-0.3062808277770808	0.03659433669176205	-0.3766321272730837	0.920136009874579	0.9201360098746322	-0.1711393754751428	0.1745101678095206	0.1257376645108723	-0.03019013233247901	-0.6879219988761455	-0.1674412426290974	-0.5467597496173162	2.291141321558215	0.04044559924325136	0.6548279225923392	-0.4658737638626216	1.830854190915396	1.83085419091543	-0.01642986430271431	0.0001508971202485943	0.3379789678046464	0.09159174348122835	-0.3179519664678229	0.02627051840751553	-0.02048548127372755	-0.2093018364370489	0.07849401040057781	0.04537601766617038	0.2745186080657946	-15.01789852654439	-19.03142639474096	4.86381695728254	-0.01825124346953718	-644.8795235411302	-52.94924130152017	-14.18769307270333	1.078258823758583	0.70529879289161	0.1796669257136544	-3.034276384815823	0.5333957230266589	-0.7621010041350311	2.036098577142897	-2.478609671793009	-2.478609671793019	0.02221479177598772	-0.003919052077831548	-0.6423555265675921	0.5162033675936659	-1.751273288081791e-07	-3.340812363262716e-07	1.077027145314592e-06	7.856345688549642e-08	-1.977447802013468e-07	1.68403844758325e-07	-2.069067401101381e-07
